<svg width="207" height="49" viewBox="0 0 207 49" fill="none" xmlns="http://www.w3.org/2000/svg">
<path d="M33.2593 20.3255C32.9701 20.2649 32.7602 19.8591 32.5084 19.6119C32.1026 19.2154 31.7574 18.6977 31.2724 18.4505C30.7686 18.1986 30.1343 18.2266 29.5653 18.096C29.1828 18.0074 28.7537 17.9468 28.4319 17.7509C28.4086 17.7369 28.3852 17.7229 28.3619 17.7089C27.6017 17.1772 26.9067 16.5475 26.1791 15.9598C25.4608 15.3815 24.7472 14.8031 23.9963 14.1968C23.3713 15.3861 23.3339 16.7108 24.0382 18.0587C23.9636 18.0727 23.8843 18.0867 23.8097 18.1007C20.5075 18.7164 17.8162 20.0456 16.347 21.6968C15.7686 22.3451 15.3768 23.0447 15.2183 23.763C15.7593 23.4878 16.3097 23.2499 16.8834 23.0867C17.0793 23.0261 17.2752 22.9794 17.4804 22.9374C17.9142 22.8535 18.3619 22.8115 18.833 22.8255C15.8526 25.7499 14.3041 29.5279 15.153 31.6874C16.389 28.9589 17.1213 27.8815 18.194 27.2238C16.8134 32.0139 17.6157 35.5354 20.3675 36.7714C19.5046 33.8469 19.4114 32.7602 19.9571 31.8367C20.5261 37.485 25.8293 39.5699 29.3694 39.1175C26.6502 36.888 25.638 33.9029 26.9673 32.0559C28.763 34.7145 30.9785 35.7499 33.3573 35.0456C31.0298 32.6902 30.2416 31.1137 30.708 29.7378C31.6222 30.7872 32.1772 31.0624 33.166 30.9272C31.5102 29.6445 31.5569 28.18 32.8209 26.5522C32.2705 26.6082 31.874 26.6501 31.4823 26.6874C31.874 26.4076 32.2938 26.2443 32.7276 26.2024C33.5671 26.1231 34.416 26.1371 35.2556 26.0578C36.5196 25.9412 37.4431 25.1436 37.7836 24.0288C37.9235 23.5671 38.222 23.152 38.3899 22.6996C38.5718 22.2098 38.6838 21.6921 38.777 21.3656C36.7948 21.0018 35.0224 20.7033 33.2593 20.3255ZM28.6744 19.7191C29.6259 19.6632 30.4981 19.4673 31.0485 20.4048C29.9664 20.8199 29.5653 20.7126 28.6744 19.7191Z" fill="#020F59"/>
<path d="M17.0933 23.5391C17.0186 23.3759 16.93 23.2173 16.8694 23.0447C15.9972 20.6147 15.9972 20.6147 13.7817 21.1371C13.5625 21.1884 13.3386 21.2071 13.1194 21.2397C13.306 19.3554 13.7584 17.6017 14.8918 16.1744C15.9972 15.0504 17.1166 13.9449 18.1893 12.7836C18.5392 12.4058 18.8703 12.1306 19.3461 12.0979C21.0158 11.9953 22.6716 11.5755 24.3087 11.277C26.5662 10.8619 28.8377 10.4654 31.0951 9.97104C31.3983 9.90574 31.8041 9.58859 32.0186 10.1296C32.2518 10.708 31.8367 10.9879 31.5336 11.2817C30.4328 12.3498 29.3414 13.4365 28.1987 14.444C27.7136 14.8731 27.653 15.2416 27.8955 15.8619C28.1334 16.4636 28.4972 17.0373 28.4272 17.7649C27.0093 17.2985 25.694 18.124 24.3461 18.3573C23.5205 18.5018 22.6296 19.0709 21.8088 19.5746C20.0923 20.6567 18.25 21.5336 17.0933 23.5391Z" fill="#020F59"/>
<path d="M14.8965 16.1792C13.7631 17.6064 13.3107 19.3602 13.1241 21.2445C13.0821 22.9376 12.6577 24.6214 13.0728 26.3238C13.1521 26.6549 13.4739 27.084 13.1474 27.3639C12.8023 27.6624 12.6437 27.0374 12.3545 26.9255C12.0747 27.0327 12.0747 27.3359 12.0467 27.5691C11.9301 28.446 11.4124 28.4226 10.8806 28.2781C10.2463 28.1008 10.1903 27.5505 10.4002 26.9488C10.6194 26.3191 10.8387 25.6801 11.1512 25.1158C11.7155 24.1036 11.7062 22.8536 12.2426 21.8415C12.8862 20.82 12.7836 19.6213 12.8303 18.4553C13.1474 17.8723 13.6325 17.4385 13.7864 16.7062C13.931 16.0299 14.4767 16.2118 14.8965 16.1792Z" fill="#E6B010"/>
<path d="M12.8302 18.4551C12.7836 19.6211 12.8862 20.8198 12.2425 21.8413C11.8741 21.2722 11.4076 21.6687 10.9972 21.7107C10.6614 21.7433 10.4235 21.6501 10.2789 21.3376C10.1157 20.9878 10.3722 20.7732 10.5728 20.6053C11.3657 19.9476 12.1679 19.2993 12.8302 18.4551Z" fill="#020F59"/>
<path d="M24.5 47C36.9264 47 47 36.9264 47 24.5C47 12.0736 36.9264 2 24.5 2C12.0736 2 2 12.0736 2 24.5C2 36.9264 12.0736 47 24.5 47Z" stroke="#020F59" stroke-width="3" stroke-miterlimit="10"/>
<path d="M60.693 30.0219H60.2677C59.7813 30.0219 59.356 29.6933 59.2304 29.2229L57.0364 20.9305C56.856 20.2507 57.3683 19.5838 58.0738 19.5838H58.0899C58.5925 19.5838 59.0274 19.935 59.1369 20.4247L60.577 26.9388H60.693L62.3876 20.386C62.51 19.9124 62.9384 19.5806 63.4249 19.5806H63.6118C64.0982 19.5806 64.5235 19.9092 64.6491 20.3796L66.3759 26.9356H66.4919L67.9191 20.4215C68.0254 19.9285 68.4635 19.5774 68.9661 19.5774C69.6717 19.5774 70.1839 20.2443 70.0035 20.924L67.8031 29.2165C67.6775 29.6869 67.2522 30.0122 66.7657 30.0122H66.3534C65.8734 30.0122 65.4545 29.6965 65.3225 29.2358L63.5699 23.1051H63.4539L61.7207 29.2326C61.595 29.703 61.173 30.0219 60.693 30.0219Z" fill="#020F59"/>
<path d="M70.7896 26.0302C70.7896 23.4465 72.2876 21.8711 74.7167 21.8711C77.1458 21.8711 78.6439 23.44 78.6439 26.0302C78.6439 28.6429 77.1684 30.1958 74.7167 30.1958C72.2651 30.1958 70.7896 28.6397 70.7896 26.0302ZM76.4822 26.0302C76.4822 24.4967 75.8314 23.5914 74.7167 23.5914C73.5956 23.5914 72.9513 24.4967 72.9513 26.0302C72.9513 27.5863 73.5891 28.4754 74.7167 28.4754C75.8411 28.4754 76.4822 27.5766 76.4822 26.0302Z" fill="#020F59"/>
<path d="M81.4854 18.9976C82.0652 18.9976 82.5388 19.4679 82.5388 20.051V28.9685C82.5388 29.5484 82.0685 30.022 81.4854 30.022C80.9055 30.022 80.4319 29.5516 80.4319 28.9685V20.051C80.4319 19.4711 80.9022 18.9976 81.4854 18.9976Z" fill="#020F59"/>
<path d="M88.4472 30.022H87.5355C87.0974 30.022 86.7108 29.7449 86.5658 29.3326L84.5072 23.4048C84.2752 22.7379 84.7714 22.042 85.4769 22.042H85.5188C85.9795 22.042 86.3822 22.3481 86.5078 22.7927L87.9479 27.9859H88.0768L89.5039 22.7927C89.6264 22.3481 90.0323 22.0388 90.493 22.0388C91.1985 22.0388 91.6914 22.7315 91.4627 23.3983L89.4137 29.3261C89.272 29.745 88.8854 30.022 88.4472 30.022Z" fill="#020F59"/>
<path d="M99.1946 27.7506C99.7004 27.7506 100.019 28.3143 99.7423 28.7364C99.1367 29.6545 97.9865 30.1958 96.5046 30.1958C94.0755 30.1958 92.6418 28.6623 92.6418 26.0721C92.6418 23.4755 94.1045 21.8711 96.4756 21.8711C98.8274 21.8711 100.216 23.3692 100.216 25.9014C100.216 26.2557 99.9292 26.5457 99.5716 26.5457H94.7391V26.6552C94.7681 27.8408 95.464 28.5785 96.5626 28.5785C97.2552 28.5785 97.7675 28.3723 98.051 27.9986C98.1734 27.8343 98.3763 27.7538 98.5793 27.7538H99.1946V27.7506ZM95.609 25.199H97.3261C97.819 25.199 98.1379 24.6642 97.8899 24.239C97.6096 23.759 97.1199 23.4851 96.4852 23.4851C95.8667 23.4851 95.3641 23.759 95.0613 24.2197C94.7842 24.6385 95.1064 25.199 95.609 25.199Z" fill="#020F59"/>
<path d="M105.074 21.8711C106.54 21.8711 107.571 22.3157 108.073 23.1404C108.367 23.6237 108.015 24.2454 107.452 24.2454H106.933C106.682 24.2454 106.459 24.1037 106.314 23.8975C106.095 23.5914 105.677 23.411 105.09 23.411C104.34 23.411 103.782 23.7525 103.782 24.2583C103.782 24.6481 104.124 24.8865 104.861 25.0541L106.359 25.3795C107.906 25.7209 108.602 26.3717 108.602 27.5637C108.602 29.1552 107.178 30.1958 105.087 30.1958C103.57 30.1958 102.484 29.748 101.943 28.9232C101.627 28.4432 101.978 27.8021 102.555 27.8021H103.173C103.412 27.8021 103.631 27.9213 103.769 28.1178C104.011 28.4625 104.472 28.6558 105.132 28.6558C105.95 28.6558 106.514 28.3143 106.514 27.8021C106.514 27.4123 106.211 27.1739 105.509 27.0225L104.062 26.6971C102.516 26.3556 101.762 25.6178 101.762 24.3904C101.756 22.8762 103.086 21.8711 105.074 21.8711Z" fill="#020F59"/>
<path d="M114.355 29.1294V20.4793C114.355 19.9864 114.755 19.5869 115.248 19.5869H120.296C120.789 19.5869 121.189 19.9864 121.189 20.4793V20.5599C121.189 21.0528 120.789 21.4522 120.296 21.4522H117.432C116.939 21.4522 116.54 21.8517 116.54 22.3446V23.2789C116.54 23.7718 116.939 24.1713 117.432 24.1713H119.89C120.383 24.1713 120.783 24.5708 120.783 25.0637C120.783 25.5566 120.383 25.9561 119.89 25.9561H117.432C116.939 25.9561 116.54 26.3556 116.54 26.8485V29.1262C116.54 29.6191 116.14 30.0185 115.647 30.0185H115.251C114.755 30.0218 114.355 29.6223 114.355 29.1294Z" fill="#020F59"/>
<path d="M122.825 19.8673C122.825 19.2391 123.308 18.8042 124.069 18.8042C124.819 18.8042 125.312 19.2391 125.312 19.8673C125.312 20.4891 124.819 20.9305 124.069 20.9305C123.312 20.9305 122.825 20.4891 122.825 19.8673ZM124.066 22.0452C124.645 22.0452 125.119 22.5155 125.119 23.0986V28.9717C125.119 29.5515 124.649 30.0251 124.066 30.0251C123.486 30.0251 123.012 29.5548 123.012 28.9717V23.0986C123.015 22.5155 123.486 22.0452 124.066 22.0452Z" fill="#020F59"/>
<path d="M128.263 22.0452C128.827 22.0452 129.284 22.5027 129.284 23.0665V23.3275H129.413C129.784 22.4319 130.592 21.8745 131.772 21.8745C133.543 21.8745 134.497 22.9602 134.497 24.8674V29.004C134.497 29.5678 134.04 30.0252 133.476 30.0252H133.411C132.848 30.0252 132.39 29.5678 132.39 29.004V25.3667C132.39 24.2682 131.92 23.6883 130.921 23.6883C129.945 23.6883 129.346 24.3745 129.346 25.4247V29.004C129.346 29.5678 128.888 30.0252 128.324 30.0252H128.26C127.696 30.0252 127.239 29.5678 127.239 29.004V23.0665C127.245 22.4995 127.703 22.0452 128.263 22.0452Z" fill="#020F59"/>
<path d="M136.111 27.7443C136.111 26.2977 137.22 25.4601 139.201 25.3441L140.615 25.2604C140.905 25.2443 141.134 25.0027 141.134 24.7127V24.5806C141.134 23.9137 140.657 23.54 139.787 23.54C139.156 23.54 138.698 23.7204 138.463 24.0587C138.36 24.2037 138.183 24.2778 138.002 24.2778H137.116C136.717 24.2778 136.446 23.8622 136.614 23.4982C137.084 22.4833 138.279 21.8777 139.9 21.8777C142.013 21.8777 143.205 22.8764 143.205 24.5838V29.4807C143.205 29.7836 142.961 30.0316 142.654 30.0316H141.714C141.411 30.0316 141.163 29.7868 141.163 29.4807V28.9878H141.034C140.622 29.7191 139.755 30.1508 138.721 30.1508C137.191 30.1444 136.111 29.2037 136.111 27.7443ZM141.134 27.1289C141.134 26.81 140.866 26.5587 140.548 26.5813L139.52 26.6457C138.615 26.7101 138.173 27.0355 138.173 27.609C138.173 28.2017 138.685 28.5626 139.417 28.5626C140.396 28.5626 141.134 27.9376 141.134 27.1289Z" fill="#020F59"/>
<path d="M146.298 22.0452C146.862 22.0452 147.319 22.5027 147.319 23.0665V23.3275H147.448C147.819 22.4319 148.627 21.8745 149.807 21.8745C151.578 21.8745 152.532 22.9602 152.532 24.8674V29.004C152.532 29.5678 152.075 30.0252 151.511 30.0252H151.446C150.883 30.0252 150.425 29.5678 150.425 29.004V25.3667C150.425 24.2682 149.955 23.6883 148.956 23.6883C147.98 23.6883 147.381 24.3745 147.381 25.4247V29.004C147.381 29.5678 146.923 30.0252 146.359 30.0252H146.295C145.731 30.0252 145.274 29.5678 145.274 29.004V23.0665C145.277 22.4995 145.734 22.0452 146.298 22.0452Z" fill="#020F59"/>
<path d="M160.335 24.8575C159.983 24.8575 159.658 24.6675 159.494 24.3582C159.239 23.8846 158.762 23.5979 158.083 23.5979C156.949 23.5979 156.311 24.4452 156.311 26.0141C156.311 27.6056 156.955 28.4658 158.083 28.4658C158.75 28.4658 159.239 28.2145 159.5 27.7312C159.661 27.4316 159.99 27.2576 160.331 27.2576C161.092 27.2576 161.556 28.0985 161.15 28.7396C160.57 29.6545 159.51 30.1958 158.086 30.1958C155.599 30.1958 154.188 28.6913 154.188 26.0141C154.188 23.3659 155.592 21.8711 158.086 21.8711C159.552 21.8711 160.612 22.4349 161.179 23.3885C161.565 24.036 161.108 24.8575 160.354 24.8575H160.335Z" fill="#020F59"/>
<path d="M163.099 19.8673C163.099 19.2391 163.582 18.8042 164.342 18.8042C165.096 18.8042 165.586 19.2391 165.586 19.8673C165.586 20.4891 165.093 20.9305 164.342 20.9305C163.585 20.9305 163.099 20.4891 163.099 19.8673ZM164.339 22.0452C164.919 22.0452 165.393 22.5155 165.393 23.0986V28.9717C165.393 29.5515 164.922 30.0251 164.339 30.0251C163.759 30.0251 163.286 29.5548 163.286 28.9717V23.0986C163.289 22.5155 163.759 22.0452 164.339 22.0452Z" fill="#020F59"/>
<path d="M167.094 27.7443C167.094 26.2977 168.202 25.4601 170.183 25.3441L171.598 25.2604C171.888 25.2443 172.116 25.0027 172.116 24.7127V24.5806C172.116 23.9137 171.639 23.54 170.77 23.54C170.138 23.54 169.681 23.7204 169.446 24.0587C169.342 24.2037 169.165 24.2778 168.985 24.2778H168.099C167.699 24.2778 167.429 23.8622 167.596 23.4982C168.067 22.4833 169.262 21.8777 170.882 21.8777C172.996 21.8777 174.188 22.8764 174.188 24.5838V29.4807C174.188 29.7836 173.943 30.0316 173.637 30.0316H172.696C172.393 30.0316 172.145 29.7868 172.145 29.4807V28.9878H172.016C171.604 29.7191 170.737 30.1508 169.703 30.1508C168.17 30.1444 167.094 29.2037 167.094 27.7443ZM172.113 27.1289C172.113 26.81 171.846 26.5587 171.527 26.5813L170.499 26.6457C169.594 26.7101 169.152 27.0355 169.152 27.609C169.152 28.2017 169.665 28.5626 170.396 28.5626C171.375 28.5626 172.113 27.9376 172.113 27.1289Z" fill="#020F59"/>
<path d="M177.38 18.9976C177.96 18.9976 178.434 19.4679 178.434 20.051V28.9685C178.434 29.5484 177.963 30.022 177.38 30.022C176.8 30.022 176.327 29.5516 176.327 28.9685V20.051C176.33 19.4711 176.8 18.9976 177.38 18.9976Z" fill="#020F59"/>
<path d="M189.832 27.5347H187.625C187.19 27.5347 186.807 27.815 186.675 28.2274L186.32 29.3292C186.188 29.7415 185.802 30.0218 185.37 30.0218H185.312C184.626 30.0218 184.143 29.3453 184.368 28.6945L187.297 20.257C187.435 19.8543 187.815 19.5837 188.24 19.5837H189.387C189.813 19.5837 190.193 19.8543 190.331 20.257L193.26 28.6945C193.485 29.3453 193.002 30.0218 192.316 30.0218H192.087C191.652 30.0218 191.266 29.7383 191.133 29.3227L190.789 28.2306C190.653 27.815 190.267 27.5347 189.832 27.5347ZM188.737 25.8498C189.413 25.8498 189.893 25.1926 189.69 24.5483L188.807 21.7551H188.679L187.786 24.545C187.577 25.1894 188.06 25.8498 188.737 25.8498Z" fill="#020F59"/>
<path d="M195.112 19.8673C195.112 19.2391 195.595 18.8042 196.356 18.8042C197.106 18.8042 197.599 19.2391 197.599 19.8673C197.599 20.4891 197.106 20.9305 196.356 20.9305C195.599 20.9305 195.112 20.4891 195.112 19.8673ZM196.352 22.0452C196.932 22.0452 197.406 22.5155 197.406 23.0986V28.9717C197.406 29.5515 196.935 30.0251 196.352 30.0251C195.772 30.0251 195.299 29.5548 195.299 28.9717V23.0986C195.302 22.5155 195.772 22.0452 196.352 22.0452Z" fill="#020F59"/>
<path d="M199.142 26.0239C199.142 23.4853 200.386 21.9163 202.39 21.9163C203.469 21.9163 204.358 22.4382 204.771 23.3209H204.893V20.022C204.893 19.4582 205.35 19.0007 205.914 19.0007H205.979C206.542 19.0007 207 19.4582 207 20.022V29.0039C207 29.5677 206.542 30.0252 205.979 30.0252C205.415 30.0252 204.957 29.5677 204.957 29.0039V28.7719H204.828C204.403 29.6321 203.498 30.1476 202.39 30.1476C200.379 30.1444 199.142 28.569 199.142 26.0239ZM201.304 26.0303C201.304 27.5058 201.977 28.3886 203.105 28.3886C204.233 28.3886 204.912 27.4994 204.912 26.0368C204.912 24.5838 204.226 23.6785 203.105 23.6785C201.984 23.6785 201.304 24.5677 201.304 26.0303Z" fill="#020F59"/>
</svg>
